<svg xmlns="http://www.w3.org/2000/svg" viewBox="0 0 300 600"><title>headline</title><g id="Layer_2" data-name="Layer 2"><g id="rect"><rect width="300" height="600" fill="none"/></g><g id="SUPPORT_CA_FAMILIES" data-name="SUPPORTCA FAMILIES"><path d="M24.38,95.17c.8,4.89,3,7.44,6.38,7.44a4.5,4.5,0,0,0,4.72-4.72c0-2.6-1.25-4.21-6.14-8.06-5.77-4.58-5.95-4.77-7.57-6.75a11.25,11.25,0,0,1-2.29-6.88c0-6,4.46-10.17,10.79-10.17,5.89,0,9.85,3.53,11.59,10.35l-6.14,1.8c-1-4-2.85-6.14-5.45-6.14a4.1,4.1,0,0,0-4.16,4.22,6.2,6.2,0,0,0,1.74,4.15c1,1.12,1,1.12,5.46,4.53,3.47,2.73,4.77,3.9,6.13,5.58a12.15,12.15,0,0,1,2.67,7.56c0,6.26-4.59,10.54-11.35,10.54-7.06,0-11.22-3.84-12.52-11.66Z" fill="#fff"/><path d="M68.46,94.67c0,5.21-.62,7.87-2.36,10.23s-4.83,3.72-8.62,3.72-6.75-1.3-8.55-3.72-2.36-5-2.36-10.23v-28H53V95.72c0,4.84,1.36,6.89,4.59,6.89s4.52-2,4.52-6.89V66.65h6.39Z" fill="#fff"/><path d="M74.29,66.65h10.6c4.15,0,6.76.8,8.68,2.66,2.23,2.11,3.28,5.27,3.28,9.68s-1,7.5-3.28,9.61c-1.92,1.86-4.53,2.66-8.68,2.66H80.67V108H74.29Zm9.17,18.72c5.15,0,6.76-1.55,6.76-6.45s-1.61-6.38-6.76-6.38H80.67V85.37Z" fill="#fff"/><path d="M101.32,66.65h10.6c4.15,0,6.76.8,8.68,2.66,2.23,2.11,3.28,5.27,3.28,9.68s-1,7.5-3.28,9.61c-1.92,1.86-4.53,2.66-8.68,2.66H107.7V108h-6.38Zm9.17,18.72c5.15,0,6.76-1.55,6.76-6.45s-1.61-6.38-6.76-6.38H107.7V85.37Z" fill="#fff"/><path d="M150.67,94.86c0,4.65-.68,7.44-2.36,9.79-1.86,2.54-5,4-8.93,4s-7.06-1.43-8.92-4c-1.68-2.35-2.36-5.14-2.36-9.79V79.79c0-4.65.68-7.44,2.36-9.79,1.86-2.61,5-4,8.92-4s7.07,1.36,8.93,4c1.68,2.35,2.36,5.14,2.36,9.79Zm-16.18-.13c0,3.29.18,4.4.8,5.64a4.86,4.86,0,0,0,8.19,0c.68-1.24.8-2.29.8-5.64V79.92c0-3.35-.12-4.34-.8-5.65a4.87,4.87,0,0,0-8.19,0c-.62,1.24-.8,2.36-.8,5.65Z" fill="#fff"/><path d="M156.13,66.65h10c3.78,0,6.2.74,8.18,2.48,2.48,2.11,3.72,5.27,3.72,9.36,0,5.21-1.86,8.8-5.58,10.72L178.51,108h-6.7l-5.46-17h-3.84v17h-6.38Zm8.74,18.47c2.72,0,4-.31,5-1.3s1.55-2.66,1.55-5-.5-4-1.55-5-2.24-1.3-5-1.3h-2.36V85.12Z" fill="#fff"/><path d="M189.05,72.54h-8V66.65h22.44v5.89h-8.06V108h-6.38Z" fill="#fff"/><path d="M42.29,144.92c0,8.93-3.9,13.7-11.34,13.7-4.15,0-7.44-1.61-9.24-4.59-1.55-2.54-2-5-2-11.09v-11.6c0-6.51.49-8.86,2.42-11.47s5-3.84,8.74-3.84c7.06,0,11.22,4.71,11.22,12.83v1.24H35.72v-.87c0-4.71-1.67-7.19-4.89-7.19a4.14,4.14,0,0,0-3.72,2c-.75,1.36-1,2.6-1,5.95V143.8c0,3.16.19,4.78.69,6.14A4.33,4.33,0,0,0,31,152.61c3.28,0,5-2.67,5-8.06a8,8,0,0,0-.06-1.06h6.44Z" fill="#fff"/><path d="M53.52,116.65h8.74L70.63,158H64.06l-1.74-9h-8.8l-1.68,9H45.58Zm7.75,26.47-3.41-18.54-3.35,18.54Z" fill="#fff"/><path d="M83.65,116.65h18.91v5.89H90V133.7h9.3v5.89H90V158H83.65Z" fill="#fff"/><path d="M110.62,116.65h8.74L127.73,158h-6.57l-1.74-9h-8.8l-1.68,9h-6.26Zm7.75,26.47L115,124.58l-3.35,18.54Z" fill="#fff"/><path d="M131.7,116.65h9.36l5.7,26,5.77-26h9.24V158h-6.08V127.56L148.5,158h-3.6l-7.13-30.44V158H131.7Z" fill="#fff"/><path d="M167.66,116.65H174V158h-6.38Z" fill="#fff"/><path d="M179.93,116.65h6.39v35.46H199V158h-19.1Z" fill="#fff"/><path d="M202.56,116.65H209V158h-6.39Z" fill="#fff"/><path d="M214.84,116.65h18.72v5.89H221.22v10.91h9.12v5.89h-9.12v12.77h12.34V158H214.84Z" fill="#fff"/><path d="M242.36,145.17c.81,4.89,3,7.44,6.39,7.44a4.5,4.5,0,0,0,4.71-4.72c0-2.6-1.24-4.21-6.14-8.06-5.76-4.58-5.95-4.77-7.56-6.75a11.19,11.19,0,0,1-2.29-6.88c0-6,4.46-10.17,10.78-10.17,5.89,0,9.86,3.53,11.6,10.35l-6.14,1.8c-1-4-2.85-6.14-5.46-6.14a4.09,4.09,0,0,0-4.15,4.22,6.2,6.2,0,0,0,1.74,4.15c1,1.12,1,1.12,5.45,4.53,3.47,2.73,4.78,3.9,6.14,5.58a12.2,12.2,0,0,1,2.66,7.56c0,6.26-4.58,10.54-11.34,10.54-7.07,0-11.22-3.84-12.52-11.66Z" fill="#fff"/></g></g></svg>