<svg xmlns="http://www.w3.org/2000/svg" viewBox="0 0 300 600"><title>logo</title><g id="Layer_2" data-name="Layer 2"><g id="Logo"><path d="M95.67,573h1.8v10h3.59v1.66H95.67Z" fill="#fff"/><path d="M108.5,581a4.44,4.44,0,0,1-.67,2.76,3.4,3.4,0,0,1-5,0,4.45,4.45,0,0,1-.66-2.76v-4.26a4.47,4.47,0,0,1,.66-2.76,3.39,3.39,0,0,1,5,0,4.46,4.46,0,0,1,.67,2.76Zm-4.57,0a3.18,3.18,0,0,0,.23,1.6,1.29,1.29,0,0,0,1.15.63,1.3,1.3,0,0,0,1.16-.63,3.05,3.05,0,0,0,.22-1.6v-4.18a3.05,3.05,0,0,0-.22-1.59,1.28,1.28,0,0,0-1.16-.63,1.27,1.27,0,0,0-1.15.63,3.13,3.13,0,0,0-.23,1.59Z" fill="#fff"/><path d="M116.48,581a4.44,4.44,0,0,1-.67,2.76,3.39,3.39,0,0,1-5,0,4.45,4.45,0,0,1-.66-2.76v-4.26a4.47,4.47,0,0,1,.66-2.76,3.39,3.39,0,0,1,5,0,4.46,4.46,0,0,1,.67,2.76Zm-4.57,0a3.18,3.18,0,0,0,.23,1.6,1.29,1.29,0,0,0,1.15.63,1.3,1.3,0,0,0,1.16-.63,3.05,3.05,0,0,0,.22-1.6v-4.18a3.05,3.05,0,0,0-.22-1.59,1.28,1.28,0,0,0-1.16-.63,1.27,1.27,0,0,0-1.15.63,3.13,3.13,0,0,0-.23,1.59Z" fill="#fff"/><path d="M118.21,573H120v4.84l2.61-4.84h1.94l-2.47,4.24,2.82,7.44h-2l-2-5.51-1,1.62v3.89h-1.8Z" fill="#fff"/><path d="M128.79,573h5.34v1.67H130.6v3.15h2.62v1.66H130.6v5.2h-1.81Z" fill="#fff"/><path d="M141.54,581a4.44,4.44,0,0,1-.67,2.76,3.4,3.4,0,0,1-5,0,4.44,4.44,0,0,1-.67-2.76v-4.26a4.46,4.46,0,0,1,.67-2.76,3.4,3.4,0,0,1,5,0,4.46,4.46,0,0,1,.67,2.76Zm-4.57,0a3.34,3.34,0,0,0,.22,1.6,1.3,1.3,0,0,0,1.16.63,1.29,1.29,0,0,0,1.15-.63,2.92,2.92,0,0,0,.23-1.6v-4.18a2.92,2.92,0,0,0-.23-1.59,1.27,1.27,0,0,0-1.15-.63,1.28,1.28,0,0,0-1.16.63,3.29,3.29,0,0,0-.22,1.59Z" fill="#fff"/><path d="M143.27,573h2.81a3.23,3.23,0,0,1,2.32.71,3.27,3.27,0,0,1,1,2.64,3.11,3.11,0,0,1-1.58,3l1.72,5.3H147.7l-1.55-4.8h-1.08v4.8h-1.8Zm2.46,5.22c.77,0,1.12-.09,1.4-.37a2.46,2.46,0,0,0,0-2.81c-.28-.28-.63-.37-1.4-.37h-.66v3.55Z" fill="#fff"/><path d="M155.25,574.67H153V573h6.33v1.67h-2.27v10h-1.81Z" fill="#fff"/><path d="M160.4,573h1.8v4.87h2.57V573h1.81v11.68h-1.81v-5.15H162.2v5.15h-1.8Z" fill="#fff"/><path d="M168.41,573h5.29v1.67h-3.48v3.08h2.57v1.66h-2.57V583h3.48v1.66h-5.29Z" fill="#fff"/><path d="M179,581.06c.23,1.38.84,2.1,1.8,2.1a1.27,1.27,0,0,0,1.33-1.33c0-.74-.35-1.19-1.73-2.28a10.28,10.28,0,0,1-2.14-1.91,3.14,3.14,0,0,1-.64-1.94,2.84,2.84,0,0,1,3-2.87c1.66,0,2.78,1,3.27,2.92l-1.73.51c-.28-1.14-.8-1.73-1.54-1.73a1.16,1.16,0,0,0-1.17,1.19,1.72,1.72,0,0,0,.49,1.17,10.12,10.12,0,0,0,1.54,1.28,9.65,9.65,0,0,1,1.73,1.57,3.49,3.49,0,0,1,.76,2.14,2.94,2.94,0,0,1-3.21,3c-2,0-3.17-1.08-3.53-3.29Z" fill="#fff"/><path d="M185.28,573h5.29v1.67h-3.48v3.08h2.57v1.66h-2.57V583h3.48v1.66h-5.29Z" fill="#fff"/><path d="M193.7,573h2.47l2.36,11.68h-1.85l-.49-2.54H193.7l-.47,2.54h-1.77Zm2.19,7.48-1-5.23-1,5.23Z" fill="#fff"/><path d="M199.84,573h1.81v10h3.58v1.66h-5.39Z" fill="#fff"/><path d="M206.2,582.81h1.69v1.87H206.2Z" fill="#fff"/><path d="M149.73,567.14a34.7,34.7,0,0,1-34.24-29.42l-3.44.34a3.46,3.46,0,0,1-3.68-3.44s-.15-16.06-.15-16.06a3.45,3.45,0,0,1,3.22-3.46c.43-.05,5.88-.59,8.86-.83a34.6,34.6,0,0,1,58.87,0c3,.24,8.43.78,8.86.83a3.45,3.45,0,0,1,3.21,3.46s-.14,16.08-.14,16.06a3.46,3.46,0,0,1-3.69,3.44l-3.44-.34A34.68,34.68,0,0,1,149.73,567.14Z" fill="#ffc121"/><path d="M133,535.58h2.35l1.87,4.26,2-4.26h2.38l1.39,8h-2.39l-.67-4.59h0l-2.2,4.59h-.95L134.6,539h0l-.76,4.59h-2.38Z"/><path d="M148.17,543.55h-2.38v-8h2.38Z"/><path d="M154,541.8h2.86v1.75h-5.25v-8H154Z"/><path d="M164.72,535.58h3L164,539.35l4,4.2h-3.09l-3.08-3.46h0v3.46h-2.39v-8h2.39v3.29h0Z"/><path d="M140.06,513.89l-1.14-2.39h-.53v2.39h-1.58v-6.43h2.55a2.05,2.05,0,0,1,2.19,2.07,1.85,1.85,0,0,1-1.05,1.68l1.39,2.68Zm-.78-5h-.89v1.3h.89a.65.65,0,1,0,0-1.3Z"/><path d="M144.1,513.89v-6.43h4.37v1.41h-2.79v1.07h2.38v1.41h-2.38v1.13h2.79v1.41Z"/><path d="M154.58,513.89l-.3-1h-2l-.31,1h-1.65l2.33-6.43h1.22l2.34,6.43Zm-1.26-4-.57,1.71h1.12Z"/><path d="M158.28,513.89v-6.43h1.58v5h2.7v1.41Z"/><path d="M189,518.54a1.2,1.2,0,0,0-1.2-1.2h0q-4.89-.52-9.95-.91a32.38,32.38,0,0,0-56.22,0q-5.06.39-10,.91h0a1.2,1.2,0,0,0-1.2,1.2h0l.14,16.08h0a1.21,1.21,0,0,0,1.2,1.21h0q2.81-.3,5.66-.55a32.39,32.39,0,0,0,64.54,0c1.9.17,3.79.35,5.65.55h0a1.2,1.2,0,0,0,1.2-1.21h0l.14-16.08Zm-39.26-15.67a29.63,29.63,0,0,1,24.73,13.3c-8-.54-16.28-.82-24.73-.83s-16.71.29-24.72.83A29.59,29.59,0,0,1,149.73,502.87Zm-5.3,55a9,9,0,0,0-1.36.21,2,2,0,0,1-.37-.3,4.4,4.4,0,0,1-.26-.39,3,3,0,0,1-.07-.86,2.75,2.75,0,0,1,.19-1.37,8.44,8.44,0,0,1,.39-.89,5.55,5.55,0,0,0,.39-.6c.13.27.31.18.47.3a2,2,0,0,1-.15.42c-.08.13,0,.26.05.4s.74,2.69.74,2.77A1.08,1.08,0,0,1,144.43,557.84Zm8.18.18,0,0c-1.88,0-1.77.61-4.22.13a17.53,17.53,0,0,0-3.14-.36,6.87,6.87,0,0,1-.47-2c0-.35.08-.82.09-1a3.64,3.64,0,0,1,.31-.73c.05-.1.13-.07.12,0s0,.29.09.31.18-.32.21-.41a.87.87,0,0,1,.23-.22c.05.06,0,.33.13.34s.09,0,.1-.11c.08-.36.06-.36.38-.52a4.47,4.47,0,0,0,.62-.61c2.3,1,4.23-.39,5.68.34a11.36,11.36,0,0,1,0,1.19,3.29,3.29,0,0,0,.07,1,5.73,5.73,0,0,1-.29,1.69c-.07.16-.15.19-.16.27s.16,0,.23.17,0,.24-.06.3A.16.16,0,0,0,152.61,558Zm.09,0a.93.93,0,0,1,.13,0,.1.1,0,0,1,.06,0Zm1.17.09a2.23,2.23,0,0,1-.44-2.46,3.18,3.18,0,0,0,.25-.47.35.35,0,0,0-.06-.09h.1a.41.41,0,0,0,0,.09,1.17,1.17,0,0,1,.14.54,7.62,7.62,0,0,1-.07,1.31.44.44,0,0,0,0,.32c0,.07,0,.16,0,.21s.17.06.24.12.06.32.06.43h-.14Zm21.27-10.38-.22-3.88-1.43,3.8-1.27-3.87-.39,4-2.24-3.4.67,4-3-2.71,1.68,3.69-3.63-1.83,2.57,3.12-4-.83,3.3,2.36-4.06.23,3.79,1.42L163,555.15l4,.39c-3.91,1.2-3.21,3.92-11.86,2.77,0-.11-.26-.25-.32-.32s-.11-.27-.25-.38a.68.68,0,0,1-.15-.45,9.16,9.16,0,0,1-.09-1.17.75.75,0,0,1,.08-.39c.07-.11,0-.19.1-.31a1.09,1.09,0,0,0,.09-.56c0-.24.19-1.32.19-1.32a1.31,1.31,0,0,0,1.06-.78c0-.07.26-.28.53-.69a9.05,9.05,0,0,0,.5-1.71c.06-.11.21-.81.25-.89s.42-.53.65-.85.1-.31.31-.54a.56.56,0,0,1,.63-.07,9.73,9.73,0,0,0,1.51,0c.14,0,.42-.2.49-.2s.2,0,.31,0a.67.67,0,0,0,.36-.25c0-.07.09-.07.15-.12a.58.58,0,0,0,.13-.39.58.58,0,0,0-.21-.4c-.07,0-.28,0-.38-.06a4.76,4.76,0,0,1-.59-.45c-.29-.23-.88-.58-.92-.66-.14-.31-.22-.29-.25-.37s0-.18,0-.26-.42,0-.44,0a1.74,1.74,0,0,1-.38-.31.76.76,0,0,0-.46-.28c-.11,0-.18.09-.15.23s-.07.17,0,.23.08.16,0,.21a1.89,1.89,0,0,0-.58.27,5.71,5.71,0,0,1-2.61,1.13,2.85,2.85,0,0,0-1.09,0,66.57,66.57,0,0,1-6.91.31h0a9.46,9.46,0,0,0-1.1-.15c-.59,0-1.5-.13-1.94-.13a1.65,1.65,0,0,0-1.28.54,1.82,1.82,0,0,0-.46.71c-.07.24.06,2.29-.08,3-.08.46-.3,1.56-.3,1.56s-.38.05-.52.52-.37.55-.48.71a1.08,1.08,0,0,0-.14.41,1,1,0,0,1,.46-.5,1.76,1.76,0,0,0-.42,1,1.26,1.26,0,0,1,.46-.57,1.83,1.83,0,0,0-.53,1.11l.18-.25a.7.7,0,0,1,0,.2l.24-.17a2.25,2.25,0,0,0-.4.78,1.91,1.91,0,0,1,.39-.51,3,3,0,0,0-.31,1.08,1.93,1.93,0,0,1,.6-.92,1.23,1.23,0,0,0,.54-1,6.32,6.32,0,0,1,.36-.94.77.77,0,0,0-.12-.85c.07-.32.14-.8.25-1.67a11.47,11.47,0,0,0,.15-2c-.06-.88.11-.92.11-.92a8.68,8.68,0,0,0,.2,1.91,16.39,16.39,0,0,1-.1,2.88,3.41,3.41,0,0,1-.45,1,1.26,1.26,0,0,0-.15.69c0,.27,0,2.82-.1,2.91a.78.78,0,0,0-.12.39c0,.12.14.12.19.19a3.08,3.08,0,0,0,.3.48c-1.54-.35-4.77-2.32-11.35-2.93a29.59,29.59,0,0,1-10.46-20.13c9.49-.77,19.37-1.19,29.52-1.19s20,.42,29.52,1.19A29.61,29.61,0,0,1,175.14,547.75Z"/><path d="M120.5,528.7c0,2-.1,2.47-.7,3.21a3.61,3.61,0,0,1-2.72,1.21,3.4,3.4,0,0,1-2.72-1c-.6-.75-.7-1.14-.7-3.15v-5.38c0-2,.1-2.43.7-3.2a3.69,3.69,0,0,1,2.72-1.2,3.4,3.4,0,0,1,2.72,1c.63.77.7,1.14.7,3.16v.87l-2.15.06v-1.84c0-1.27-.34-1.74-1.24-1.71s-1.29.5-1.29,1.81v7.28c0,1.29.33,1.76,1.24,1.73s1.29-.5,1.29-1.8v-2.41l2.15-.07Z" fill="#fff"/><path d="M124.13,529.89l-.41,2.64-2,.16,2.18-14,2.54-.17L129,532.21l-2.06.12-.5-2.57Zm1.38-6.41-.19-1.36-.14-1.13-.1,1.1-.19,1.42-.55,4.64,1.82-.1Z" fill="#fff"/><polygon points="132.75 530.29 136.19 530.14 136.19 531.87 130.62 532.11 130.62 518.25 132.75 518.14 132.75 530.29" fill="#fff"/><polygon points="140.13 531.77 137.98 531.82 137.98 517.94 140.13 517.89 140.13 531.77" fill="#fff"/><polygon points="144.2 525.36 144.2 531.69 142.05 531.72 142.05 517.85 147.52 517.76 147.52 519.49 144.2 519.54 144.2 523.62 147.24 523.57 147.24 525.32 144.2 525.36" fill="#fff"/><path d="M155.81,527.4c0,2-.1,2.47-.69,3.2a3.88,3.88,0,0,1-5.45,0c-.6-.77-.69-1.16-.69-3.18v-5.35c0-2,.09-2.43.69-3.18a3.59,3.59,0,0,1,2.72-1.12,3.54,3.54,0,0,1,2.73,1.12c.62.79.69,1.16.69,3.18Zm-4.68,1c0,1.29.33,1.76,1.24,1.76s1.29-.45,1.29-1.76v-7.26c0-1.29-.33-1.77-1.24-1.77s-1.29.46-1.29,1.77Z" fill="#fff"/><path d="M161.3,517.9c1.38,0,1.86.17,2.24.68a4.56,4.56,0,0,1,.5,2.62v1c0,1.89-.33,2.44-1.6,2.6,1.29.34,1.6.91,1.6,2.93v1.72a5.59,5.59,0,0,0,.43,2.47l-2.19-.08a8.24,8.24,0,0,1-.39-2.71v-1.23c0-1.78-.28-2.45-1-2.47l-.93,0v6.35l-2.17,0V517.82Zm-1.41,5.94,1.26,0c.63,0,.74-.19.74-1.41v-1.31c0-1.23-.11-1.52-.74-1.53l-1.26,0Z" fill="#fff"/><polygon points="170.34 532.18 167.59 521.33 167.66 522.22 167.78 523.54 167.83 524.39 168.05 532.08 166.05 531.99 166.04 518.1 168.27 518.2 170.55 526.78 170.75 527.55 170.91 528.33 171.03 528.83 170.98 528.04 170.84 526.31 170.77 525.25 170.61 518.32 172.68 518.45 172.69 532.33 170.34 532.18" fill="#fff"/><polygon points="176.93 532.61 174.78 532.45 174.75 518.6 176.92 518.76 176.93 532.61" fill="#fff"/><path d="M181,530.29l-.41,2.62-2-.17,2.2-13.67,2.55.22,2.58,14.1-2.07-.19-.52-2.72Zm1.39-6.22-.19-1.38-.14-1.15-.1,1.09L181.8,524l-.55,4.56,1.81.16Z" fill="#fff"/><path d="M174.12,549.32a5,5,0,0,0-1-.1,4.71,4.71,0,0,0-4.5,6.07A29.78,29.78,0,0,0,174.12,549.32Z" fill="#fff"/><path d="M183.17,535.85a.87.87,0,1,1-.9.87A.86.86,0,0,1,183.17,535.85Zm0,1.56a.69.69,0,1,0-.66-.69A.66.66,0,0,0,183.17,537.41Zm-.35-1.18h.37c.24,0,.38.08.38.29a.24.24,0,0,1-.26.26l.26.43h-.2l-.24-.42H183v.42h-.19Zm.19.41h.18c.1,0,.19,0,.19-.14s-.12-.12-.2-.12H183Z"/></g><g id="rect"><rect width="300" height="600" fill="none"/></g></g></svg>