<svg xmlns="http://www.w3.org/2000/svg" viewBox="0 0 300 600"><title>subhead</title><g id="Layer_2" data-name="Layer 2"><g id="rect"><rect width="300" height="600" fill="none"/></g><g id="Buy_Ca_Dairy" data-name="Buy Ca Dairy"><path d="M25.45,40.18a6.43,6.43,0,0,0-1.45,9,10.61,10.61,0,0,0,1.16-1.71l8.13-14c1.36-2.38,3.33-3.54,5-3.54,6,0,5.54,7.63-.55,9.69,5.8,3.86,1.63,14.68-7.39,14.68-10.56,0-12.42-11.64-6.1-15.67Zm7.86-.09L32.5,40l-5.07,8.78a16,16,0,0,1-1.51,2.15A8.65,8.65,0,0,0,30.27,52C37.58,52,40.39,41.57,33.31,40.09Zm.21-1.85c3.07-.06,4.78-.73,5.94-2.9,1.51-2.85-1.3-5.08-3.51-1.28Z" fill="#fff"/><path d="M58,46a2.64,2.64,0,0,1,1.13,1c-2.5,2.91-6.37,5.57-8.86,5.57a2.35,2.35,0,0,1-2.58-2.9c-1.45,1.4-3.31,2.9-5,2.9-2,0-2.7-1.88-1.16-4.55l5.91-10.24h3L44.59,48.1c-.38.64-1.13,1.77-.38,2.09.58.26,2.35-.9,4.65-3l5.36-9.37h3L50.8,49.11c-.7,1.19-.32,1.66.35,1.66,1.33,0,4.45-2,6.62-4.53Z" fill="#fff"/><path d="M63.88,47.11l5.34-9.28h3L64,52c2.38-1,4.5-2.88,7-5.75l.2-.23a2.64,2.64,0,0,1,1.13,1c-3.31,3.83-6.38,6-9.51,7l-2.32,4c-2.18,3.71-6.62,3.1-6.62.2,0-2.26,2.55-3.94,6.64-5.16l1.66-2.84c-1.37,1.22-3,2.43-4.47,2.43-2,0-2.7-1.88-1.16-4.55l5.92-10.24h3L59.56,48.1c-.38.64-1.14,1.77-.38,2.09C59.76,50.45,61.56,49.26,63.88,47.11Zm-6,10.39,1.39-2.44c-2.32.9-3,1.8-3,2.58S57.29,58.63,57.93,57.5Z" fill="#fff"/><path d="M90.94,33.48c1.36-2.38,3.33-3.54,5-3.54,2.24,0,4,1.77,4,4.5a8.38,8.38,0,0,1-1.22,4.06,10.23,10.23,0,0,1-11,5.65l-.84,1.48c-1.8,3.08-.55,5.14,1.51,5.14,3,0,6.66-2,8.83-4.53l.21-.23a2,2,0,0,1,1.13,1c-2.5,2.91-6.4,5.57-10.89,5.57-4.27,0-5.51-4.06-3.4-7.71l.9-1.57a6.64,6.64,0,0,1-.69-11.63l1,1.77a4.8,4.8,0,0,0-1.94,3.8,4.86,4.86,0,0,0,2.7,4.29ZM89.46,42.3c4.7,0,8.12-5.08,8.12-7.89,0-1.11-.52-1.86-1.66-1.86-.84,0-1.82.67-2.72,2.21L88.85,42.3Z" fill="#fff"/><path d="M111.41,46a2.58,2.58,0,0,1,1.13,1c-2.49,2.91-5.36,5.57-7.86,5.57a2.34,2.34,0,0,1-2.61-2,7.37,7.37,0,0,1-4.18,2c-2.43,0-3.33-2.06-2.06-4.29L100.07,41a6.71,6.71,0,0,1,5.16-3.48,3.13,3.13,0,0,1,3.16,3.05h1.71l-4.87,8.52c-.69,1.19-.32,1.66.35,1.66,1.33,0,3.45-2,5.63-4.53Zm-13,3.1c-.69,1.19-.31,1.66.35,1.66,1.25,0,3-1.37,4.88-4.24L106,42.41c1.47-2.72-1.75-3.45-3.37-.64Z" fill="#fff"/><path d="M129.36,49.17l8.73-15.08-.43,0c-5.92,0-8.88,5.48-6.47,8.53l-1.74,1.56c-3.89-3.48-.67-12.38,8.09-12.38,16.24,0,10.7,23.12-1.28,23.12a11.55,11.55,0,0,1-6.2-2,5.88,5.88,0,0,1-4.85,2.41c-2.49,0-3.74-1.51-3.74-3.07s1.39-3.34,4.24-3.34a7.52,7.52,0,0,1,3.33.87Zm-1.42,2.58a6.54,6.54,0,0,0-2.52-.55c-.88,0-1.31.44-1.31.87s.46.9,1.45.9A2.51,2.51,0,0,0,127.94,51.75Zm12.82-17.17L131.3,51a9.47,9.47,0,0,0,4.91,1.57C143.78,52.57,148.82,37.54,140.76,34.58Z" fill="#fff"/><path d="M164.23,46a2.58,2.58,0,0,1,1.13,1c-2.49,2.91-6.36,5.57-8.86,5.57a2.35,2.35,0,0,1-2.61-2,7.37,7.37,0,0,1-4.17,2c-2.44,0-3.34-2.06-2.06-4.29L151.89,41a6.71,6.71,0,0,1,5.16-3.48,3.14,3.14,0,0,1,3.17,3.05h1.71l-4.88,8.52c-.69,1.19-.31,1.66.35,1.66,1.34,0,4.45-2,6.63-4.53Zm-14,3.1c-.7,1.19-.32,1.66.35,1.66,1.24,0,3-1.37,4.87-4.24l2.35-4.12c1.48-2.72-1.74-3.45-3.37-.64Z" fill="#fff"/><path d="M172.68,47c-2.49,2.9-5.51,5.58-8,5.58s-3.34-2.06-2.06-4.29l6.06-10.5h3l-6.47,11.28c-.69,1.19-.32,1.66.35,1.66,1.33,0,3.8-2.24,6-4.76m.52-13.23a1.77,1.77,0,0,1,1.77,1.77,1.74,1.74,0,0,1-1.77,1.74,1.7,1.7,0,0,1-1.74-1.74A1.74,1.74,0,0,1,172.08,32.78Z" fill="#fff"/><path d="M171.55,46c2-2.32,3.77-4.87,5.11-6.76l-.26-.35c-1.08-1.39-.93-3.1.78-4.64L178.75,36a1.18,1.18,0,0,0-.18,1.74l1.68,2a3.08,3.08,0,0,1,.44,4.09l-3,5.28c-.69,1.19-.32,1.66.35,1.66,1.34,0,4.45-2,6.63-4.53l.2-.23a2.58,2.58,0,0,1,1.13,1c-2.49,2.91-6.36,5.57-8.86,5.57s-3.33-2.06-2.06-4.29l3.19-5.54a1.47,1.47,0,0,0-.17-1.71l-.41-.49c-2.4,3.27-3.54,4.78-5,6.46" fill="#fff"/><path d="M190.75,47.11l5.34-9.28h3L190.84,52c2.38-1,4.49-2.88,7-5.75L198,46a2.58,2.58,0,0,1,1.13,1c-3.3,3.83-6.38,6-9.51,7l-2.32,4c-2.18,3.71-6.62,3.1-6.62.2,0-2.26,2.56-3.94,6.65-5.16L189,50.19c-1.36,1.22-3,2.43-4.47,2.43-2,0-2.69-1.88-1.16-4.55l5.92-10.24h3L186.43,48.1c-.38.64-1.13,1.77-.38,2.09C186.63,50.45,188.43,49.26,190.75,47.11ZM184.81,57.5l1.39-2.44c-2.32.9-3,1.8-3,2.58S184.17,58.63,184.81,57.5Z" fill="#fff"/></g></g></svg>