<svg xmlns="http://www.w3.org/2000/svg" viewBox="0 0 147 34"><title>cta_txt</title><g id="Layer_2" data-name="Layer 2"><g id="Rectangle_1" data-name="Rectangle 1" style="isolation:isolate"><g id="Rectangle_1-2" data-name="Rectangle 1"><rect width="147" height="34" fill="none"/></g></g><g id="FIND_CA_DAIRY" data-name="FIND CA DAIRY"><path d="M15.05,9.33h7v2.19H17.42v4.13h3.44v2.19H17.42v6.83H15.05Z" transform="translate(0 0)" fill="#fff"/><path d="M24.41,9.33h2.37V24.67H24.41Z" transform="translate(0 0)" fill="#fff"/><path d="M30,9.33h2.39l3.87,9.54V9.33h2.25V24.67H36.44L32.3,14.46V24.67H30Z" transform="translate(0 0)" fill="#fff"/><path d="M41.8,9.33h3.74c3,0,4.44,1.54,4.44,4.81v5.72c0,3.27-1.42,4.81-4.44,4.81H41.8Zm3.54,13.15c1.68,0,2.27-.87,2.27-3.26V14.78c0-2.41-.59-3.26-2.27-3.26H44.16v11Z" transform="translate(0 0)" fill="#fff"/><path d="M65.71,19.82c0,3.31-1.45,5.08-4.2,5.08a3.8,3.8,0,0,1-3.43-1.7c-.58-.95-.74-1.84-.74-4.12v-4.3c0-2.41.19-3.29.9-4.25A3.88,3.88,0,0,1,61.48,9.1c2.62,0,4.16,1.75,4.16,4.76v.46H63.28V14c0-1.75-.62-2.67-1.82-2.67a1.55,1.55,0,0,0-1.38.76,4.09,4.09,0,0,0-.37,2.21v5.1A6.7,6.7,0,0,0,60,21.68a1.61,1.61,0,0,0,1.55,1c1.21,0,1.84-1,1.84-3a2.15,2.15,0,0,0,0-.39h2.39Z" transform="translate(0 0)" fill="#fff"/><path d="M71,9.33H74.2l3.11,15.34H74.87l-.65-3.34H71l-.62,3.34H68Zm2.87,9.82-1.26-6.88-1.24,6.88Z" transform="translate(0 0)" fill="#fff"/><path d="M84.3,9.33h3.75c3,0,4.44,1.54,4.44,4.81v5.72c0,3.27-1.43,4.81-4.44,4.81H84.3Zm3.54,13.15c1.68,0,2.28-.87,2.28-3.26V14.78c0-2.41-.6-3.26-2.28-3.26H86.67v11Z" transform="translate(0 0)" fill="#fff"/><path d="M97.82,9.33h3.24l3.11,15.34h-2.44l-.64-3.34H97.82l-.62,3.34H94.88Zm2.88,9.82-1.27-6.88-1.24,6.88Z" transform="translate(0 0)" fill="#fff"/><path d="M106.72,9.33h2.37V24.67h-2.37Z" transform="translate(0 0)" fill="#fff"/><path d="M112.36,9.33h3.7a4.29,4.29,0,0,1,3,.92,4.33,4.33,0,0,1,1.38,3.47,4.07,4.07,0,0,1-2.07,4l2.25,7h-2.48l-2-6.3h-1.42v6.3h-2.37Zm3.24,6.85c1,0,1.47-.11,1.84-.48a2.49,2.49,0,0,0,.58-1.84,2.51,2.51,0,0,0-.58-1.86c-.37-.37-.83-.48-1.84-.48h-.87v4.66Z" transform="translate(0 0)" fill="#fff"/><path d="M126,18.69l-3.45-9.36h2.62l2.05,6.49,2.12-6.49H132l-3.54,9.36v6H126Z" transform="translate(0 0)" fill="#fff"/></g></g></svg>