<svg xmlns="http://www.w3.org/2000/svg" viewBox="0 0 300 250"><title>txt</title><g id="Layer_2" data-name="Layer 2"><g id="rect"><rect width="300" height="250" fill="none"/></g><g id="Headline"><path d="M14.68,51.63c.46,2.8,1.7,4.25,3.65,4.25A2.57,2.57,0,0,0,21,53.19c0-1.49-.71-2.41-3.51-4.61-3.3-2.63-3.41-2.73-4.33-3.87a6.41,6.41,0,0,1-1.31-3.93c0-3.41,2.55-5.82,6.17-5.82,3.37,0,5.63,2,6.63,5.92l-3.51,1c-.57-2.3-1.63-3.51-3.12-3.51a2.34,2.34,0,0,0-2.38,2.41,3.57,3.57,0,0,0,1,2.38,20.56,20.56,0,0,0,3.12,2.59A20.25,20.25,0,0,1,23.3,49a7,7,0,0,1,1.52,4.32c0,3.58-2.62,6-6.49,6-4,0-6.42-2.2-7.16-6.67Z" fill="#fff"/><path d="M39.89,51.34c0,3-.36,4.51-1.35,5.85a5.9,5.9,0,0,1-4.93,2.13,5.85,5.85,0,0,1-4.89-2.13c-1-1.34-1.35-2.87-1.35-5.85v-16H31V52c0,2.76.78,3.93,2.63,3.93s2.59-1.17,2.59-3.93V35.32h3.65Z" fill="#fff"/><path d="M43.22,35.32h6.06c2.38,0,3.87.46,5,1.52,1.27,1.21,1.88,3,1.88,5.53s-.61,4.29-1.88,5.5c-1.1,1.06-2.59,1.52-5,1.52H46.87V59H43.22ZM48.47,46c2.94,0,3.86-.88,3.86-3.68s-.92-3.65-3.86-3.65h-1.6V46Z" fill="#fff"/><path d="M58.68,35.32h6.06c2.38,0,3.87.46,5,1.52,1.27,1.21,1.88,3,1.88,5.53s-.61,4.29-1.88,5.5c-1.1,1.06-2.59,1.52-5,1.52H62.33V59H58.68ZM63.93,46c2.94,0,3.86-.88,3.86-3.68s-.92-3.65-3.86-3.65h-1.6V46Z" fill="#fff"/><path d="M86.9,51.45c0,2.66-.39,4.25-1.34,5.6a6.88,6.88,0,0,1-10.21,0c-1-1.35-1.35-2.94-1.35-5.6V42.83c0-2.66.39-4.25,1.35-5.6A5.93,5.93,0,0,1,80.45,35a6,6,0,0,1,5.11,2.27c1,1.35,1.34,2.94,1.34,5.6Zm-9.25-.07a6.52,6.52,0,0,0,.46,3.22,2.78,2.78,0,0,0,4.68,0c.39-.7.46-1.31.46-3.22V42.9c0-1.91-.07-2.48-.46-3.22a2.78,2.78,0,0,0-4.68,0,6.57,6.57,0,0,0-.46,3.22Z" fill="#fff"/><path d="M90,35.32h5.71a6.5,6.5,0,0,1,4.68,1.42,6.65,6.65,0,0,1,2.13,5.35c0,3-1.06,5-3.19,6.13L102.82,59H99l-3.12-9.72H93.68V59H90Zm5,10.56c1.56,0,2.27-.17,2.84-.74a3.85,3.85,0,0,0,.89-2.84,3.87,3.87,0,0,0-.89-2.87c-.57-.57-1.28-.74-2.84-.74H93.68v7.19Z" fill="#fff"/><path d="M108.85,38.69h-4.57V35.32h12.83v3.37H112.5V59h-3.65Z" fill="#fff"/><path d="M24.93,80.08c0,5.1-2.24,7.83-6.49,7.83a5.85,5.85,0,0,1-5.29-2.62C12.27,83.84,12,82.45,12,78.94V72.31c0-3.72.28-5.07,1.38-6.56a6,6,0,0,1,5-2.19c4,0,6.42,2.69,6.42,7.34v.71H21.17v-.5c0-2.7-1-4.11-2.8-4.11a2.37,2.37,0,0,0-2.13,1.17,6.28,6.28,0,0,0-.57,3.4v7.87A10.21,10.21,0,0,0,16.06,83a2.49,2.49,0,0,0,2.38,1.53c1.88,0,2.83-1.53,2.83-4.61a5.23,5.23,0,0,0,0-.61h3.69Z" fill="#fff"/><path d="M31.34,63.91h5l4.79,23.65H37.37l-1-5.14h-5l-.95,5.14H26.81Zm4.44,15.14-2-10.6-1.92,10.6Z" fill="#fff"/><path d="M48.58,63.91H59.39v3.37H52.23v6.38h5.32V77H52.23V87.56H48.58Z" fill="#fff"/><path d="M64,63.91h5l4.79,23.65H70l-1-5.14H64l-1,5.14H59.46Zm4.43,15.14-2-10.6-1.91,10.6Z" fill="#fff"/><path d="M76.05,63.91h5.36l3.26,14.86L88,63.91h5.28V87.56H89.78V70.15L85.66,87.56h-2L79.53,70.15V87.56H76.05Z" fill="#fff"/><path d="M96.62,63.91h3.65V87.56H96.62Z" fill="#fff"/><path d="M103.64,63.91h3.65V84.19h7.27v3.37H103.64Z" fill="#fff"/><path d="M116.58,63.91h3.65V87.56h-3.65Z" fill="#fff"/><path d="M123.6,63.91h10.71v3.37h-7.06v6.24h5.22v3.37h-5.22v7.3h7.06v3.37H123.6Z" fill="#fff"/><path d="M139.34,80.22c.46,2.8,1.71,4.26,3.66,4.26a2.57,2.57,0,0,0,2.69-2.7c0-1.49-.71-2.41-3.51-4.61-3.3-2.62-3.4-2.73-4.33-3.86a6.42,6.42,0,0,1-1.31-3.94c0-3.4,2.56-5.81,6.17-5.81,3.37,0,5.64,2,6.63,5.92l-3.51,1c-.57-2.31-1.63-3.51-3.12-3.51a2.33,2.33,0,0,0-2.37,2.41,3.53,3.53,0,0,0,1,2.37,20.56,20.56,0,0,0,3.12,2.59A19.87,19.87,0,0,1,148,77.56a7,7,0,0,1,1.52,4.33c0,3.58-2.62,6-6.48,6-4.05,0-6.42-2.19-7.17-6.66Z" fill="#fff"/></g></g></svg>