<svg xmlns="http://www.w3.org/2000/svg" viewBox="0 0 300 250"><title>logo</title><g id="Layer_2" data-name="Layer 2"><g id="rect"><rect width="300" height="250" fill="none"/></g><g id="Logo"><path d="M9.89,226.07h1.43v8h2.86v1.33H9.89Z" fill="#fff"/><path d="M20.09,232.4a3.5,3.5,0,0,1-.53,2.2,2.37,2.37,0,0,1-2,.89,2.4,2.4,0,0,1-2-.89,3.57,3.57,0,0,1-.53-2.2V229a3.59,3.59,0,0,1,.53-2.2,2.36,2.36,0,0,1,2-.89,2.33,2.33,0,0,1,2,.89,3.52,3.52,0,0,1,.53,2.2Zm-3.63,0a2.55,2.55,0,0,0,.18,1.26,1,1,0,0,0,.92.5,1,1,0,0,0,.92-.5,2.39,2.39,0,0,0,.18-1.26v-3.33a2.45,2.45,0,0,0-.18-1.27,1,1,0,0,0-.92-.5,1,1,0,0,0-.92.5,2.57,2.57,0,0,0-.18,1.27Z" fill="#fff"/><path d="M26.44,232.4a3.5,3.5,0,0,1-.53,2.2,2.39,2.39,0,0,1-2,.89,2.4,2.4,0,0,1-2-.89,3.57,3.57,0,0,1-.53-2.2V229a3.59,3.59,0,0,1,.53-2.2,2.36,2.36,0,0,1,2-.89,2.34,2.34,0,0,1,2,.89,3.52,3.52,0,0,1,.53,2.2Zm-3.63,0a2.55,2.55,0,0,0,.18,1.26,1,1,0,0,0,.92.5,1,1,0,0,0,.92-.5,2.39,2.39,0,0,0,.18-1.26v-3.33a2.45,2.45,0,0,0-.18-1.27,1,1,0,0,0-.92-.5,1,1,0,0,0-.92.5,2.57,2.57,0,0,0-.18,1.27Z" fill="#fff"/><path d="M27.82,226.07h1.43v3.84l2.08-3.84h1.54l-2,3.37,2.24,5.92H31.58L30,231l-.77,1.29v3.1H27.82Z" fill="#fff"/><path d="M36.24,226.07h4.25v1.32H37.68v2.51h2.08v1.32H37.68v4.14H36.24Z" fill="#fff"/><path d="M46.38,232.4a3.57,3.57,0,0,1-.53,2.2,2.7,2.7,0,0,1-4,0,3.5,3.5,0,0,1-.53-2.2V229a3.52,3.52,0,0,1,.53-2.2,2.7,2.7,0,0,1,4,0,3.59,3.59,0,0,1,.53,2.2Zm-3.64,0a2.55,2.55,0,0,0,.18,1.26,1,1,0,0,0,.92.5,1,1,0,0,0,.92-.5,2.29,2.29,0,0,0,.18-1.26v-3.33a2.35,2.35,0,0,0-.18-1.27,1,1,0,0,0-.92-.5,1,1,0,0,0-.92.5,2.57,2.57,0,0,0-.18,1.27Z" fill="#fff"/><path d="M47.75,226.07H50a2.54,2.54,0,0,1,1.83.56,2.6,2.6,0,0,1,.84,2.1,2.48,2.48,0,0,1-1.25,2.41l1.36,4.22h-1.5l-1.23-3.82h-.86v3.82H47.75Zm2,4.15c.61,0,.89-.07,1.11-.29a2,2,0,0,0,0-2.25c-.22-.22-.5-.29-1.11-.29h-.53v2.83Z" fill="#fff"/><path d="M57.29,227.39H55.5v-1.32h5v1.32H58.73v8H57.29Z" fill="#fff"/><path d="M61.38,226.07h1.44v3.87h2v-3.87H66.3v9.29H64.86v-4.1h-2v4.1H61.38Z" fill="#fff"/><path d="M67.76,226.07H72v1.32H69.19v2.45h2v1.32h-2V234H72v1.33H67.76Z" fill="#fff"/><path d="M76.14,232.47c.18,1.1.67,1.67,1.44,1.67a1,1,0,0,0,1-1c0-.59-.27-1-1.37-1.81a8.13,8.13,0,0,1-1.7-1.52,2.5,2.5,0,0,1-.52-1.55,2.26,2.26,0,0,1,2.42-2.28,2.62,2.62,0,0,1,2.61,2.32l-1.38.41c-.22-.91-.64-1.38-1.23-1.38a.92.92,0,0,0-.93.95,1.4,1.4,0,0,0,.39.93,8.89,8.89,0,0,0,1.23,1,7.67,7.67,0,0,1,1.38,1.25,2.76,2.76,0,0,1,.59,1.7,2.33,2.33,0,0,1-2.54,2.36c-1.59,0-2.52-.86-2.82-2.61Z" fill="#fff"/><path d="M81.18,226.07h4.21v1.32H82.62v2.45h2v1.32h-2V234h2.77v1.33H81.18Z" fill="#fff"/><path d="M87.88,226.07h2l1.88,9.29H90.24l-.39-2h-2l-.38,2H86.1ZM89.62,232l-.77-4.16L88.1,232Z" fill="#fff"/><path d="M92.76,226.07H94.2v8h2.85v1.33H92.76Z" fill="#fff"/><path d="M97.82,233.87h1.35v1.49H97.82Z" fill="#fff"/><path d="M52.9,221.4A27.6,27.6,0,0,1,25.66,198c-.92.09-1.83.17-2.74.27A2.75,2.75,0,0,1,20,195.53s-.11-12.77-.11-12.77A2.75,2.75,0,0,1,22.43,180c.35,0,4.68-.47,7.05-.66a27.53,27.53,0,0,1,46.83,0c2.37.19,6.71.62,7,.66a2.76,2.76,0,0,1,2.56,2.76s-.11,12.79-.11,12.77a2.76,2.76,0,0,1-2.93,2.74c-.91-.1-1.83-.18-2.74-.27A27.6,27.6,0,0,1,52.9,221.4Z" fill="#ffc121"/><path d="M39.58,196.3h1.87l1.48,3.38,1.57-3.38h1.89l1.11,6.34H45.6L45.07,199h0l-1.76,3.65h-.75L40.86,199h0l-.61,3.65H38.34Z"/><path d="M51.66,202.64h-1.9V196.3h1.9Z"/><path d="M56.25,201.24h2.28v1.4H54.35V196.3h1.9Z"/><path d="M64.82,196.3h2.36l-2.91,3,3.17,3.34H65l-2.45-2.75h0v2.75h-1.9V196.3h1.9v2.61h0Z"/><path d="M45.2,179l-.9-1.9h-.43V179H42.62v-5.12h2a1.64,1.64,0,0,1,1.75,1.65,1.49,1.49,0,0,1-.83,1.34l1.1,2.13Zm-.61-4h-.72v1h.72a.52.52,0,1,0,0-1Z"/><path d="M48.41,179v-5.12h3.48v1.13H49.67v.85h1.9V177h-1.9v.9h2.22V179Z"/><path d="M56.75,179l-.23-.76H54.94l-.25.76H53.38l1.86-5.12h1L58.07,179Zm-1-3.18-.46,1.37h.89Z"/><path d="M59.7,179v-5.12H61v4h2.15V179Z"/><path d="M84.13,182.74a1,1,0,0,0-1-1h0q-3.89-.41-7.91-.72a25.76,25.76,0,0,0-44.72,0c-2.68.21-5.33.45-7.93.72h0a1,1,0,0,0-1,1h0l.11,12.79h0a1,1,0,0,0,1,1h0c1.49-.15,3-.3,4.51-.43a25.77,25.77,0,0,0,51.34,0c1.51.13,3,.28,4.49.43h0a1,1,0,0,0,1-1h0l.12-12.79ZM52.9,170.28a23.55,23.55,0,0,1,19.67,10.58q-9.57-.65-19.68-.67c-6.72,0-13.29.24-19.66.66A23.55,23.55,0,0,1,52.9,170.28ZM48.68,214a7.71,7.71,0,0,0-1.08.17,1.15,1.15,0,0,1-.29-.24c-.05-.09-.16-.19-.22-.31a2.65,2.65,0,0,1-.05-.68,2.22,2.22,0,0,1,.15-1.09c.09-.16.22-.61.31-.71a5,5,0,0,0,.31-.48c.11.22.25.15.38.24a2,2,0,0,1-.12.34c-.07.1,0,.2,0,.31s.58,2.14.59,2.21A1,1,0,0,1,48.68,214Zm6.51.14s0,0,0,0c-1.5,0-1.41.49-3.36.11a13.93,13.93,0,0,0-2.5-.29,5.37,5.37,0,0,1-.37-1.63c0-.28.06-.65.07-.76a2.81,2.81,0,0,1,.24-.59c0-.08.11-.05.1,0s0,.23.07.24.14-.25.17-.32a.74.74,0,0,1,.18-.18c0,.05,0,.27.11.27S50,211,50,211c.06-.28,0-.28.3-.41a3.19,3.19,0,0,0,.49-.48c1.83.78,3.37-.32,4.52.26,0,0,0,.71,0,.95a2.34,2.34,0,0,0,.06.76,4.93,4.93,0,0,1-.23,1.34c-.06.13-.12.16-.13.22s.13,0,.18.13,0,.2,0,.24A.12.12,0,0,0,55.19,214.14Zm.07,0s.07,0,.1,0a.1.1,0,0,1,0,0Zm.93.07a3.62,3.62,0,0,1-.43-.73,4,4,0,0,1,.08-1.22,2.38,2.38,0,0,0,.2-.38l0-.07h.08l0,.07a.94.94,0,0,1,.11.44,5.66,5.66,0,0,1-.06,1,.34.34,0,0,0,0,.25c0,.05,0,.13,0,.17s.13,0,.18.1,0,.25,0,.33h-.11ZM73.11,206l-.18-3.09-1.13,3-1-3.08L70.48,206l-1.78-2.71.53,3.18-2.42-2.16,1.34,2.94-2.89-1.46,2,2.49-3.18-.66,2.63,1.87-3.24.19,3,1.13-3.08,1,3.21.31c-3.11,1-2.55,3.12-9.43,2.2,0-.08-.2-.19-.25-.25s-.1-.21-.2-.3a.56.56,0,0,1-.12-.36,6.73,6.73,0,0,1-.07-.93.71.71,0,0,1,.06-.31c.06-.09,0-.15.08-.24a.94.94,0,0,0,.07-.45c0-.19.15-1.05.15-1.05a1,1,0,0,0,.84-.62,6.2,6.2,0,0,0,.43-.55,6.92,6.92,0,0,0,.39-1.36c.05-.08.17-.64.2-.71s.34-.42.52-.68.08-.24.25-.42.42-.09.5-.06a8.2,8.2,0,0,0,1.2,0c.11,0,.33-.16.39-.16a1.42,1.42,0,0,0,.25,0,.52.52,0,0,0,.28-.19c0-.06.07-.06.12-.1a.52.52,0,0,0,.11-.31.47.47,0,0,0-.17-.32c-.06,0-.23,0-.3-.05a3,3,0,0,1-.47-.36c-.23-.18-.7-.45-.73-.52-.11-.24-.18-.23-.21-.3s0-.14,0-.21-.34,0-.35,0a1.11,1.11,0,0,1-.3-.24.63.63,0,0,0-.37-.22c-.09,0-.14.06-.12.18s0,.13,0,.18.06.13,0,.17a1.42,1.42,0,0,0-.46.22,4.59,4.59,0,0,1-2.08.89c-.18,0-.32-.14-.87,0a54.78,54.78,0,0,1-5.49.25h0c-.12,0-.41-.09-.88-.12s-1.19-.09-1.54-.09a1.31,1.31,0,0,0-1,.42,1.38,1.38,0,0,0-.37.57c-.06.19.05,1.82-.06,2.43-.07.36-.25,1.24-.25,1.24s-.3,0-.41.41a1,1,0,0,1-.38.56,1,1,0,0,0-.11.33.86.86,0,0,1,.37-.4,1.41,1.41,0,0,0-.34.83,1.09,1.09,0,0,1,.37-.45,1.55,1.55,0,0,0-.43.89l.15-.2a.45.45,0,0,1,0,.16,1.86,1.86,0,0,0,.19-.14,1.82,1.82,0,0,0-.31.62,1.48,1.48,0,0,1,.31-.4,2.22,2.22,0,0,0-.25.85,1.6,1.6,0,0,1,.48-.73,1,1,0,0,0,.43-.76,4.39,4.39,0,0,1,.29-.75.63.63,0,0,0-.1-.68c.05-.25.11-.63.2-1.32a9.55,9.55,0,0,0,.12-1.59c0-.69.09-.73.09-.73a6.51,6.51,0,0,0,.16,1.52,14.83,14.83,0,0,1-.08,2.3,3.18,3.18,0,0,1-.36.78,1,1,0,0,0-.12.55c0,.22,0,2.24-.08,2.32a.54.54,0,0,0-.1.3c0,.1.11.1.15.16s.13.24.24.38c-1.22-.28-3.79-1.84-9-2.33a23.57,23.57,0,0,1-8.32-16c7.55-.61,15.41-.94,23.48-.94s15.94.33,23.49.94A23.48,23.48,0,0,1,73.11,206Z"/><path d="M29.64,190.82c0,1.62-.07,2-.55,2.56a2.85,2.85,0,0,1-2.17,1,2.67,2.67,0,0,1-2.16-.82c-.48-.6-.56-.91-.56-2.51v-4.28c0-1.6.08-1.93.56-2.54a2.92,2.92,0,0,1,2.16-1,2.7,2.7,0,0,1,2.17.83c.49.61.55.9.55,2.51v.69l-1.71.05v-1.47c0-1-.26-1.38-1-1.35s-1,.39-1,1.43v5.8c0,1,.26,1.39,1,1.37s1-.39,1-1.43v-1.92l1.71,0Z" fill="#fff"/><path d="M32.53,191.77l-.32,2.1-1.62.12,1.73-11.16,2-.13,2,10.91-1.64.1-.4-2.05Zm1.1-5.1-.15-1.08-.12-.9-.07.88-.15,1.13-.44,3.69,1.44-.08Z" fill="#fff"/><polygon points="39.39 192.09 42.13 191.97 42.13 193.34 37.7 193.53 37.7 182.51 39.39 182.42 39.39 192.09" fill="#fff"/><polygon points="45.26 193.26 43.55 193.31 43.55 182.26 45.26 182.22 45.26 193.26" fill="#fff"/><polygon points="48.5 188.16 48.5 193.2 46.79 193.22 46.78 182.19 51.14 182.12 51.14 183.49 48.5 183.53 48.5 186.78 50.91 186.74 50.91 188.13 48.5 188.16" fill="#fff"/><path d="M57.73,189.79c0,1.62-.07,2-.55,2.54a3.08,3.08,0,0,1-4.33,0c-.48-.61-.55-.92-.55-2.52v-4.26c0-1.61.07-1.94.55-2.53a2.83,2.83,0,0,1,2.16-.89,2.78,2.78,0,0,1,2.17.89c.49.63.55.92.55,2.53Zm-3.72.78c0,1,.26,1.4,1,1.4s1-.36,1-1.4v-5.78c0-1-.26-1.41-1-1.41s-1,.37-1,1.41Z" fill="#fff"/><path d="M62.1,182.23c1.1,0,1.48.13,1.79.54a3.7,3.7,0,0,1,.39,2.08v.8c0,1.5-.26,1.94-1.27,2.06,1,.27,1.27.73,1.27,2.33v1.37a4.44,4.44,0,0,0,.34,2l-1.74-.07a6.6,6.6,0,0,1-.31-2.16v-1c0-1.42-.22-2-.83-2H61v5.05l-1.73,0V182.16ZM61,187l1,0c.5,0,.59-.15.59-1.13v-1c0-1-.09-1.2-.59-1.21l-1,0Z" fill="#fff"/><polygon points="69.3 193.59 67.11 184.96 67.16 185.67 67.26 186.71 67.3 187.39 67.47 193.51 65.88 193.44 65.88 182.39 67.64 182.47 69.46 189.29 69.62 189.91 69.75 190.52 69.84 190.93 69.8 190.3 69.69 188.92 69.63 188.08 69.51 182.57 71.15 182.66 71.16 193.71 69.3 193.59" fill="#fff"/><polygon points="74.53 193.93 72.82 193.81 72.8 182.79 74.53 182.91 74.53 193.93" fill="#fff"/><path d="M77.8,192.08l-.33,2.09L75.86,194l1.75-10.88,2,.18,2.06,11.22L80,194.4l-.42-2.16Zm1.1-4.94-.15-1.1-.11-.92-.08.87-.15,1.11L78,190.73l1.44.12Z" fill="#fff"/><path d="M72.3,207.23a3.87,3.87,0,0,0-.77-.08,3.73,3.73,0,0,0-3.73,3.74A3.6,3.6,0,0,0,68,212,24.18,24.18,0,0,0,72.3,207.23Z" fill="#fff"/><path d="M79.5,196.51a.69.69,0,0,1,.71.69.71.71,0,0,1-1.42,0A.68.68,0,0,1,79.5,196.51Zm0,1.24a.55.55,0,1,0-.53-.55A.53.53,0,0,0,79.5,197.75Zm-.28-.94h.29c.2,0,.31.06.31.23s-.09.2-.21.21l.21.34h-.16l-.19-.33h-.1v.33h-.15Zm.15.33h.14c.09,0,.15,0,.15-.11s-.09-.1-.16-.1h-.13Z"/></g></g></svg>