<svg xmlns="http://www.w3.org/2000/svg" viewBox="0 0 300 250"><title>subhead</title><g id="Layer_2" data-name="Layer 2"><g id="rect"><rect width="300" height="250" fill="none"/></g><g id="Subhead"><path d="M14.77,20a3.75,3.75,0,0,0-.84,5.27,6.8,6.8,0,0,0,.67-1l4.73-8.18A3.65,3.65,0,0,1,22.24,14c3.5,0,3.23,4.44-.32,5.64,3.38,2.25.94,8.55-4.31,8.55-6.15,0-7.23-6.77-3.55-9.12Zm4.58,0-.47-.05-3,5.12A8.12,8.12,0,0,1,15,26.24a5.1,5.1,0,0,0,2.54.61C21.83,26.85,23.47,20.79,19.35,19.92Zm.12-1.08c1.79,0,2.79-.42,3.46-1.69.88-1.65-.76-2.95-2-.74Z" fill="#fff"/><path d="M33.71,23.37a1.5,1.5,0,0,1,.66.61c-1.45,1.69-3.71,3.24-5.16,3.24a1.37,1.37,0,0,1-1.5-1.69c-.85.81-1.93,1.69-2.89,1.69-1.17,0-1.57-1.1-.68-2.65l3.45-6h1.76l-3.43,6c-.22.37-.66,1-.22,1.21s1.37-.52,2.7-1.74l3.13-5.45h1.75l-3.75,6.57c-.4.69-.18,1,.21,1,.77,0,2.59-1.17,3.85-2.64Z" fill="#fff"/><path d="M37.15,24l3.11-5.4H42L37.2,26.85a11.55,11.55,0,0,0,4.07-3.35l.12-.13a1.5,1.5,0,0,1,.66.61A12.39,12.39,0,0,1,36.51,28l-1.35,2.32c-1.27,2.16-3.86,1.8-3.86.11,0-1.31,1.49-2.29,3.87-3l1-1.66a4.64,4.64,0,0,1-2.61,1.42c-1.16,0-1.57-1.1-.67-2.65l3.44-6h1.76l-3.43,6c-.22.37-.66,1-.22,1.21S35.8,25.26,37.15,24Zm-3.46,6,.81-1.42c-1.35.52-1.78,1.05-1.78,1.5S33.31,30.72,33.69,30.06Z" fill="#fff"/><path d="M52.91,16.07A3.62,3.62,0,0,1,55.81,14a2.39,2.39,0,0,1,2.33,2.62A4.86,4.86,0,0,1,57.43,19a6.21,6.21,0,0,1-5.38,3.38,6.33,6.33,0,0,1-1-.08l-.49.86c-1.05,1.79-.32,3,.88,3a7.59,7.59,0,0,0,5.14-2.64l.12-.13a1.13,1.13,0,0,1,.66.61A8.71,8.71,0,0,1,51,27.22c-2.48,0-3.21-2.36-2-4.49l.52-.91a4,4,0,0,1-2.21-3.5A4,4,0,0,1,49.16,15l.57,1a2.78,2.78,0,0,0-1.13,2.21,2.85,2.85,0,0,0,1.57,2.51Zm-.86,5.14c2.73,0,4.73-3,4.73-4.6,0-.64-.31-1.08-1-1.08-.49,0-1.06.39-1.59,1.29l-2.53,4.39Z" fill="#fff"/><path d="M64.83,23.37a1.5,1.5,0,0,1,.66.61c-1.45,1.69-3.13,3.24-4.58,3.24a1.37,1.37,0,0,1-1.52-1.15A4.23,4.23,0,0,1,57,27.22c-1.42,0-1.94-1.2-1.2-2.5l2.47-4.26a3.89,3.89,0,0,1,3-2,1.82,1.82,0,0,1,1.84,1.77h1l-2.84,5c-.4.69-.18,1,.21,1,.77,0,2-1.17,3.27-2.64Zm-7.55,1.81c-.41.69-.19,1,.2,1,.73,0,1.78-.79,2.84-2.47l1.37-2.4c.86-1.58-1-2-2-.37Z" fill="#fff"/><path d="M75.28,25.21l5.09-8.78-.25,0c-3.45,0-5.17,3.19-3.77,5l-1,.91c-2.26-2-.38-7.21,4.72-7.21,9.46,0,6.23,13.46-.75,13.46a6.72,6.72,0,0,1-3.61-1.17,3.42,3.42,0,0,1-2.82,1.41c-1.45,0-2.18-.88-2.18-1.8S71.5,25,73.16,25a4.34,4.34,0,0,1,1.94.51Zm-.82,1.5A4,4,0,0,0,73,26.39c-.51,0-.76.26-.76.51s.27.52.84.52A1.48,1.48,0,0,0,74.46,26.71Zm7.46-10-5.5,9.57a5.47,5.47,0,0,0,2.85.91C83.68,27.19,86.62,18.44,81.92,16.71Z" fill="#fff"/><path d="M95.59,23.37a1.5,1.5,0,0,1,.66.61c-1.45,1.69-3.71,3.24-5.16,3.24a1.37,1.37,0,0,1-1.52-1.15,4.23,4.23,0,0,1-2.43,1.15c-1.42,0-1.94-1.2-1.2-2.5l2.47-4.26a3.89,3.89,0,0,1,3-2,1.82,1.82,0,0,1,1.84,1.77h1l-2.84,5c-.4.69-.18,1,.2,1,.78,0,2.6-1.17,3.86-2.64Zm-8.13,1.81c-.41.69-.19,1,.2,1,.73,0,1.78-.79,2.84-2.47l1.37-2.4c.86-1.58-1-2-2-.37Z" fill="#fff"/><path d="M100.51,24c-1.45,1.69-3.2,3.25-4.66,3.25s-1.94-1.2-1.2-2.5l3.53-6.11h1.76l-3.77,6.57c-.4.69-.18,1,.21,1,.77,0,2.21-1.3,3.48-2.77m.3-7.7a1,1,0,0,1,1,1,1,1,0,0,1-1,1,1,1,0,0,1-1-1A1,1,0,0,1,100.16,15.67Z" fill="#fff"/><path d="M99.86,23.37c1.14-1.35,2.19-2.84,3-3.94l-.15-.2a1.86,1.86,0,0,1,.45-2.7l.91,1a.7.7,0,0,0-.1,1l1,1.18a1.8,1.8,0,0,1,.26,2.38l-1.76,3.08c-.41.69-.19,1,.2,1,.78,0,2.59-1.17,3.86-2.64l.12-.13a1.5,1.5,0,0,1,.66.61c-1.45,1.69-3.71,3.24-5.16,3.24s-1.94-1.2-1.2-2.5l1.86-3.23a.86.86,0,0,0-.1-1l-.24-.29C102,22.12,101.36,23,100.51,24" fill="#fff"/><path d="M111,24l3.1-5.4h1.76l-4.81,8.24a11.64,11.64,0,0,0,4.07-3.35l.12-.13a1.55,1.55,0,0,1,.66.61A12.36,12.36,0,0,1,110.39,28L109,30.35c-1.26,2.16-3.85,1.8-3.85.11,0-1.31,1.49-2.29,3.87-3l1-1.66a4.59,4.59,0,0,1-2.6,1.42c-1.16,0-1.57-1.1-.67-2.65l3.44-6H112l-3.43,6c-.22.37-.66,1-.22,1.21S109.68,25.26,111,24Zm-3.47,6,.81-1.42c-1.35.52-1.77,1.05-1.77,1.5S107.2,30.72,107.57,30.06Z" fill="#fff"/></g></g></svg>